<svg width="120" height="120" viewBox="0 0 120 120" fill="none" xmlns="http://www.w3.org/2000/svg">
<path d="M67.365 119.745C65.8012 119.471 64.1812 118.729 63.2625 117.908C62.6388 117.253 62.2829 116.389 62.265 115.485C62.265 114.566 62.7337 113.276 63.4762 111.99C63.9262 111.266 64.2787 110.486 64.53 109.665C64.6875 109.099 65.0175 108.18 65.2725 107.595L65.7225 106.523L65.8387 99.3563C65.8987 95.3925 66.015 91.7213 66.1125 91.1513C66.3675 89.5088 66.795 87.9075 67.3612 86.3475L67.7925 85.3125L67.1662 84.9413C66.6 84.5888 66.1312 84.1013 64.275 81.8925C61.9912 79.1963 58.9837 77.7113 54.7237 77.205C53.3362 77.07 51.93 76.9688 50.5237 76.9125C44.2725 76.62 40.6987 75.3113 37.4775 72.1463C35.0737 69.7838 33.825 67.0275 33.3187 62.9663C32.6362 57.4763 31.875 54.6638 30.4687 52.38C30.1221 51.816 29.7228 51.2861 29.2762 50.7975L28.71 50.2313L27.4612 51.0338C26.7787 51.4838 25.8187 52.05 25.35 52.305C23.7862 53.1638 22.3012 54.12 20.8762 55.155C17.3812 57.6938 13.5712 60.8775 11.4825 62.9663C10.545 63.9038 10.0575 64.3125 9.83998 64.275C8.41498 64.0613 9.50623 57.8888 11.8312 53.2388C14.8012 47.2425 19.8 41.715 25.5825 37.9838C30.33 34.9163 38.0062 30.6975 41.5575 29.2125C47.865 26.5763 56.0287 23.7225 61.6162 22.2C62.79 21.8663 63.51 21.5738 63.9975 21.2438C65.0925 20.4825 66.165 20.1113 67.395 20.0925C68.43 20.0738 68.5275 20.055 69.525 19.3875C70.6987 18.6263 71.0475 18.585 72.2212 18.9975L72.9825 19.2713L73.92 18.6263L74.8575 18L76.2037 18.0188C77.2387 18.0375 77.7075 18 78.1575 17.805C78.7237 17.55 78.7425 17.5125 78.9 16.575C79.2525 14.5425 79.29 13.5263 79.0762 12.2963C78.8025 10.6763 78.765 4.3875 79.0387 3.15375C79.3312 1.82625 79.5262 1.5525 80.5237 1.065C82.0087 0.341252 83.1225 0.127502 85.68 0.127502C88.8037 0.127502 90.3862 0.558753 91.56 1.69125C92.6137 2.7075 92.79 5.08875 92.2425 10.6763C91.9087 13.8975 91.8712 14.7975 91.9687 16.905C92.0062 18.2513 92.1037 19.5225 92.145 19.6988C92.2237 20.0325 92.3025 20.0513 93.435 20.07C94.5487 20.0888 94.7437 20.1488 95.7975 20.6963C96.8137 21.225 97.575 21.87 97.7325 22.3388C97.7512 22.4363 97.9275 22.4363 98.2387 22.3388C98.8425 22.1625 99.3712 22.3575 99.8025 22.8863C100.057 23.22 100.211 23.2763 100.8 23.2763C101.602 23.2763 101.895 23.4713 102.559 24.45C102.869 24.8893 103.295 25.2344 103.789 25.4475C104.884 25.995 106.369 27.5175 106.935 28.7288C107.812 30.525 107.989 32.6138 107.441 34.4888C107.246 35.1938 107.246 35.2125 107.655 35.895C108.514 37.3613 108.829 39.1575 108.476 40.68L108.281 41.58L108.866 42.165C111.776 45.075 111.345 49.8225 107.794 54.06C107.397 54.544 107.062 55.0756 106.796 55.6425C106.114 57.4575 105.33 58.7288 104.317 59.7825L103.282 60.8363H102.229C101.175 60.8363 99.69 60.4838 98.79 60.015C98.4187 59.82 98.4 59.82 98.4787 60.0525C98.715 60.9113 99.3 64.4063 99.495 66.3413C99.8062 69.3113 99.7087 73.6275 99.3 75.4838C99.0013 76.8586 98.5008 78.1816 97.815 79.41C97.425 80.0363 97.4062 80.1713 97.4812 80.9325C97.5975 82.005 97.3462 83.805 96.915 84.9938C96.3862 86.3813 96.1912 87.0263 96.075 87.7275C95.9775 88.3313 95.9775 88.3313 96.4087 88.3313C96.975 88.3313 97.2862 88.665 97.2862 89.3288C97.2862 89.6213 97.0312 91.2038 96.72 92.8238C95.8612 97.3763 95.8012 97.8825 95.8012 102.296C95.7825 106.849 95.7825 106.808 96.8175 107.49L99.1425 108.994C101.143 110.321 103.285 111.422 105.529 112.275C108.791 113.565 109.241 113.895 109.241 114.99C109.241 115.478 109.144 115.654 108.735 116.044C107.486 117.255 105.022 117.529 100.061 117C97.4832 116.758 94.8955 116.635 92.3062 116.629C85.47 116.531 84.4725 116.295 83.5762 114.596C83.07 113.621 83.1675 112.35 83.8687 110.261C84.18 109.343 84.4537 108.405 84.69 107.449C85.1587 105.184 84.8475 102.488 83.7525 99.4425L82.815 96.8438C81.8962 94.2075 81.39 89.3813 81.9375 88.29C82.035 88.0763 82.2112 88.035 82.68 88.0538L83.265 88.1138L83.7525 87.0975C84.1237 86.295 84.5325 85.77 85.6462 84.6563L87.0712 83.2313L86.9925 82.3125C86.9325 81.435 85.7812 77.175 85.6237 77.1938C85.5637 77.1938 85.2525 77.625 84.9 78.1688C84.0412 79.4588 82.1475 81.45 81.0712 82.1738C80.6025 82.485 80.2125 82.8563 80.2125 82.9763C80.1937 83.505 79.7437 84.54 79.1962 85.26C78.6675 85.965 78.63 86.0813 78.7087 86.7038C78.8437 87.6225 78.5512 90.57 78.2025 92.115C77.8864 93.2622 77.4541 94.3742 76.9125 95.4338C75.5662 98.2275 74.55 100.725 74.295 101.88C74.1108 102.992 73.9931 104.114 73.9425 105.24C73.8825 106.568 73.7475 107.858 73.65 108.131C73.515 108.503 73.515 108.795 73.6312 109.361C73.7287 109.77 73.7887 110.689 73.7662 111.413C73.7475 112.41 73.8262 113.055 74.1187 114.225C74.625 116.216 74.7225 117.469 74.49 118.211C74.3325 118.68 74.1787 118.856 73.65 119.111C72.4762 119.715 69.1575 120.049 67.3612 119.738L67.365 119.745ZM72.1087 118.144C72.7912 117.949 73.38 117.364 73.38 116.835C73.38 116.599 73.185 115.916 72.9487 115.313C72.48 114.161 71.6775 111.113 71.6775 110.606C71.6775 110.351 71.6962 110.333 72.0862 110.546L72.5175 110.783V110.235C72.4549 109.73 72.3431 109.233 72.1837 108.75C71.8125 107.636 71.775 107.618 69.4087 107.479L67.8075 107.4L67.2225 107.966C66.9008 108.297 66.6189 108.665 66.3825 109.061C66.1275 109.568 66.03 110.333 66.1875 110.505C66.225 110.565 66.6187 110.505 67.0462 110.408C67.3 110.332 67.5618 110.287 67.8262 110.273C67.8262 110.291 67.395 110.644 66.8512 111.015C64.5075 112.774 63.6862 113.846 63.6862 115.215C63.6862 116.64 65.0325 117.754 67.1437 118.088C68.5875 118.301 71.4 118.361 72.105 118.148L72.1087 118.144ZM103.886 115.819C104.471 115.114 104.392 114.394 103.65 113.573C103.219 113.141 102.731 112.77 102.184 112.478C101.636 112.185 101.089 111.851 100.541 111.503C99.551 110.861 98.5338 110.261 97.4925 109.706C96.5925 109.219 95.715 108.709 94.8562 108.165L94.5037 107.891V102.521C94.5037 97.23 94.485 97.1513 94.2112 97.23C92.8425 97.6013 90.5775 97.7775 87.7087 97.7175L84.6037 97.68L85.0537 98.775C85.8937 100.845 86.325 103.62 86.325 106.804C86.325 107.996 86.2462 108.424 85.9537 109.264C85.7962 109.673 85.6612 110.085 85.5225 110.494C85.4625 110.67 85.68 110.805 86.4787 111.041C87.0637 111.218 87.9225 111.394 88.4137 111.45L89.3137 111.548L89.2162 112.448C89.1187 113.464 89.235 114.536 89.49 114.87C89.6475 115.065 90.2325 115.144 92.9475 115.26C94.9987 115.358 97.2262 115.571 98.9812 115.826C100.504 116.063 102.146 116.258 102.634 116.258C103.455 116.276 103.534 116.239 103.882 115.826L103.886 115.819ZM72.6187 106.68C72.6975 106.62 72.8137 105.566 72.855 104.318C73.0125 100.823 73.1475 100.313 74.9062 96.3675C76.35 93.1463 77.115 90.1388 77.055 88.0088L77.0175 86.7375L76.47 87.2663C75.3375 88.3988 76.1175 86.6213 77.4675 85.0388C78.4837 83.8275 78.8362 83.1638 78.99 82.0913C79.0687 81.66 79.2262 81.4463 79.89 80.94C82.3735 79.0639 84.2871 76.5349 85.4175 73.635C85.6912 72.93 86.3925 70.53 86.9812 68.3025C88.0762 64.1813 88.6612 62.4038 89.19 61.6425C89.385 61.35 89.4637 61.29 89.4262 61.485C89.143 62.5324 88.9214 63.5955 88.7625 64.6688C88.605 65.625 88.3125 67.5 88.1175 68.8088C87.7462 71.4863 87.3562 73.2038 86.8275 74.5313L86.475 75.4313L87.4125 77.8538C88.3875 80.3325 88.8375 82.1325 88.9162 83.8688L88.9762 84.8438L88.215 85.0013C87.2102 85.1791 86.3136 85.7396 85.7137 86.565C85.05 87.5213 84.6787 88.305 84.855 88.4775C84.9337 88.5563 85.89 88.7325 86.985 88.8675C88.6837 89.0625 89.3287 89.0625 91.575 88.9275C92.55 88.89 93.51 88.7925 94.4662 88.6538C94.68 88.575 94.8975 88.1475 95.2462 87.0338C96.0487 84.4763 96.2025 83.5763 96.105 81.78L96.0262 80.1975L96.435 79.6688C97.3912 78.4575 98.1337 76.2713 98.445 73.71C98.8162 70.5863 98.1337 64.0425 96.8625 58.4175C96.2587 55.74 96.0037 54.1388 96.0037 52.9688V51.9338L95.0475 52.0313C91.6087 52.4025 87.45 52.305 84.9112 51.7763C83.5237 51.5025 80.0287 50.4675 79.2675 50.1338L78.6637 49.86L78.585 50.5425C78.525 50.9138 78.4687 51.285 78.39 51.675C78.2737 52.0838 78.3112 52.1813 79.035 52.8863C79.935 53.805 80.2087 54.2738 80.2087 54.8963C80.2087 55.2863 79.995 55.6013 78.9 56.7338C78.1149 57.5715 77.2438 58.3244 76.3012 58.98L75.03 59.8388L74.4825 61.7325C72.5287 68.6663 72.1575 74.9738 73.4475 79.485L73.7587 80.6175L73.1325 81.3975C70.7887 84.345 69.4012 86.5913 69.1875 87.8438C69.0625 88.4605 68.9187 89.0733 68.7562 89.6813C68.25 91.6163 67.8562 94.4475 67.6837 97.515C67.5635 100.083 67.3948 102.648 67.1775 105.21L67.08 105.971L68.055 106.264C68.6025 106.44 69.4237 106.635 69.8925 106.714C70.77 106.849 72.3937 106.811 72.645 106.676L72.6187 106.68ZM91.5825 95.9363C93.105 95.8388 94.4925 95.6025 94.7662 95.37C94.8825 95.2913 95.0212 94.8825 95.0587 94.47L95.1562 93.7275L93.945 94.0013C92.9887 94.1963 92.0325 94.3125 91.0725 94.3913C88.7662 94.4888 86.445 94.4288 84.1575 94.1963C83.3962 94.08 83.3962 94.08 83.6287 95.0738C83.8237 95.8163 83.865 95.8538 85.8562 95.9925C87.1837 96.1088 89.04 96.09 91.5787 95.9325L91.5825 95.9363ZM90.3112 92.5388C92.3025 92.3625 94.785 91.935 95.2725 91.68C95.43 91.6013 95.565 91.3088 95.625 90.975L95.8012 89.94L95.8987 89.4525L95.4112 89.55C93.2437 90 91.6012 90.135 88.32 90.135C85.1175 90.135 84.7462 90.1163 83.9062 89.8238C83.5834 89.6877 83.2397 89.6078 82.89 89.5875C82.755 89.6663 82.7325 90.78 82.8525 91.56C82.9312 92.0288 83.01 92.1075 83.4787 92.2425C84.9637 92.6513 87.465 92.7488 90.315 92.5163L90.3112 92.5388ZM54.0637 74.9213C59.0625 73.4775 65.6062 69.2363 70.9575 63.9263C72.6975 62.1863 72.9112 61.9538 73.1437 61.1738L73.455 60.1763C73.4925 60.0975 73.1812 59.9625 72.7725 59.865C71.7 59.61 70.8787 58.9875 70.8787 58.4213C70.8787 58.0875 70.6837 57.7575 70.1175 57.15C69.1987 56.115 68.9662 55.665 68.8687 54.6713L68.79 53.8688L67.695 53.0888C67.0687 52.6388 64.8825 51.4275 62.5575 50.2575C60.7872 49.3939 59.0544 48.4555 57.3637 47.445C55.41 46.1363 54.1012 44.5725 53.3587 42.72C53.2237 42.3488 53.0475 42.0375 52.9875 42.0375C52.83 42.0375 48.435 46.275 46.56 48.2663C41.9325 53.1488 38.7487 57.3863 36.735 61.3125C36.2287 62.2875 35.6812 63.4425 35.5237 63.87L35.2312 64.65L35.5837 65.9588C35.7975 66.6638 36.2475 67.815 36.6 68.4975C37.83 70.92 39.2962 72.3825 41.7187 73.575C44.3175 74.865 46.62 75.315 50.4675 75.255C52.5375 75.2363 53.145 75.1763 54.06 74.9025L54.0637 74.9213ZM14.61 57.7913C17.8912 54.8813 22.4212 51.6975 27.9712 48.3975C31.605 46.23 45.6487 39.1988 52.1137 36.3263C53.2875 35.7975 54.3412 35.31 54.4575 35.2538C54.5737 35.175 54.9075 34.335 55.2187 33.3975C56.5875 29.0625 57.27 28.2038 59.7487 27.6375C60.06 27.5588 60.1387 27.4613 60.1387 27.15C60.1387 26.5838 60.5287 25.275 60.8625 24.69C61.1175 24.24 61.1175 24.2213 60.9 24.2813C60.765 24.3188 59.9437 24.555 59.085 24.81C47.1712 28.2488 36.7612 32.8163 27.7762 38.52C18.1875 44.6138 12.66 51.9188 11.0587 60.6675L10.9425 61.3125L12.1162 60.1613C12.7425 59.5163 13.875 58.4625 14.6175 57.8175L14.61 57.7913ZM102.99 59.4525C103.946 58.965 105.431 56.7188 105.979 54.9413C106.136 54.315 106.447 53.73 106.897 53.2425C108.341 51.6413 109.534 48.7313 109.552 46.74C109.552 43.635 107.794 42.4425 105.236 43.77C104.902 43.9275 104.632 44.0438 104.591 44.0063C104.456 43.8713 105.176 43.1663 106.057 42.6188C107.209 41.8575 107.426 41.4075 107.426 39.7875C107.443 38.4781 107.054 37.1955 106.312 36.1163C105.96 35.5875 105.825 35.2388 105.881 35.0213L106.234 33.7125C106.721 31.9725 106.545 29.9813 105.784 28.7138C104.651 26.8013 103.264 25.8638 101.329 25.7063L100.196 25.6275L100.86 26.37C102.832 28.5 103.789 31.1738 103.399 33.4613C103.204 34.635 103.027 34.8675 101.895 35.3175L101.231 35.5913L101.31 36.4913C101.445 37.9575 101.194 39.03 100.256 41.0025C99.7875 42 99.435 42.8963 99.4762 42.9938C99.5925 43.3275 100.882 43.95 101.899 44.205L102.896 44.4413L102.27 44.655C101.449 44.91 101.272 45.2813 101.272 46.6275C101.272 47.8575 101.449 48.3675 102.345 49.7138C102.754 50.2988 103.027 50.9063 103.069 51.255C103.147 51.8025 103.129 51.84 102.679 51.9975C102.169 52.1407 101.644 52.2262 101.115 52.2525C99.2775 52.3688 99.1425 52.4288 98.3212 53.2088C97.5787 53.9138 97.56 53.9513 97.56 54.7313C97.56 55.8038 97.9687 57.975 98.2237 58.2675C98.5575 58.62 100.41 59.5388 101.134 59.6738C101.758 59.8305 102.418 59.7545 102.99 59.46V59.4525ZM75.9375 57.99C77.13 57.0525 78.0675 56.115 78.5925 55.3125C78.9262 54.825 78.945 54.7275 78.7875 54.315C78.5137 53.6888 76.7175 52.0688 75.72 51.5813C75.0553 51.2835 74.3522 51.0802 73.6312 50.9775L72.4012 50.82L71.64 49.8638C70.0575 47.91 69.18 46.3875 67.9275 43.4363C66.8325 40.935 65.8762 39.4725 64.3537 38.025C63.7275 37.44 63.2812 36.9525 63.3187 36.9525C63.3975 36.9525 64.14 37.3238 64.9987 37.7738C66.4237 38.535 66.6 38.595 67.245 38.4975C69.57 38.2238 71.6212 35.55 72.3637 31.8C72.5775 30.7463 73.0087 29.67 73.4587 29.025C73.4775 29.0063 74.3775 29.5913 75.4312 30.3525C78.1087 32.2463 78.6937 32.5388 80.2162 32.5988C81.2137 32.6363 81.78 32.5613 83.5762 32.13C87.405 31.1925 91.545 30.8213 94.065 31.155C95.49 31.35 97.5412 31.9763 99.0637 32.6963C100.567 33.4013 100.86 33.4388 101.347 33.0075C101.756 32.655 101.756 32.5988 101.756 31.29C101.737 29.355 101.032 27.2663 99.96 26.0175C99.4125 25.3725 97.8712 24.3188 96.345 23.5163C95.8024 23.2285 95.2624 22.936 94.725 22.6388C94.0012 22.2075 93.1837 22.2675 90.9562 22.8525C88.3762 23.5163 87.6937 23.5163 84.7462 22.755C82.245 22.1288 82.0912 22.11 79.6275 22.5C78.3187 22.695 75.0375 22.5788 73.9425 22.2863C73.395 22.1288 72.8475 21.975 72.3225 21.78C71.3662 21.4088 69.705 21.3488 68.2012 21.6225C65.2125 22.1513 62.9475 23.7713 62.1262 25.9763C61.695 27.09 61.755 27.6188 62.3212 27.9675C63.2212 28.5338 64.41 30.0788 64.41 30.6825C64.41 30.72 64.1175 30.4688 63.7837 30.1163C62.9437 29.2388 62.1825 28.845 61.2825 28.845C60.7002 28.8612 60.134 29.0397 59.6476 29.3603C59.1613 29.681 58.7742 30.1311 58.53 30.66C58.2672 31.35 58.0455 32.055 57.8662 32.7713C57.3187 34.7625 56.8312 35.82 55.7962 37.2263C54.8775 38.4975 54.7425 39.0638 55.0725 40.4888C55.8937 44.0813 57.3187 45.5288 63.2737 48.9075C66.3975 50.685 67.9987 51.6825 69.1725 52.56C70.0725 53.2238 70.0912 53.265 70.0125 53.7713C69.8362 54.945 70.5787 56.2125 72.045 57.2475C72.4162 57.5025 72.6487 57.7763 72.6487 57.9713C72.6487 58.3238 73.6462 58.8113 74.3662 58.8113C74.775 58.8113 75.09 58.635 75.93 57.99H75.9375ZM100.02 51.405C102.285 51.4838 102.401 51.3075 101.194 49.9013C99.9225 48.435 99.5737 47.2463 100.042 45.9375L100.237 45.4313L99.435 45.0413C99.1612 44.9063 98.8875 44.7675 98.6137 44.67C98.4787 45.1988 98.34 45.705 98.2237 46.2338C97.9312 47.4263 97.5787 50.5125 97.56 51.8213C97.56 51.9375 97.755 51.9 98.0887 51.6863C98.5575 51.4125 98.7937 51.375 100.024 51.4125L100.02 51.405ZM92.4225 51.2888C93.7912 51.21 95.1975 51.1125 95.5687 51.0525L96.2512 50.955L96.33 48.7088C96.4462 45.5063 96.915 43.6125 98.3025 40.5825C99.2775 38.4338 99.7087 36.5588 99.495 35.1525C99.4162 34.5488 99.3787 34.5075 98.5575 34.155C97.0537 33.5579 95.4876 33.1315 93.8887 32.8838C92.3475 32.67 87.8137 32.7863 86.115 33.12C85.41 33.2363 84.1237 33.51 83.265 33.7238C81.135 34.2113 80.0025 34.155 78.3825 33.45C76.7812 32.745 75.765 32.1038 74.8087 31.2038C74.0475 30.4988 73.9687 30.4613 73.7737 30.6975C73.6162 30.8738 73.5375 31.4025 73.4812 32.535C73.4212 34.275 73.1475 35.19 72.3862 36.42C72.2171 36.6731 72.0727 36.9418 71.955 37.2225C71.955 37.2825 72.54 37.965 73.2637 38.7075C75.765 41.3063 76.995 41.97 78.9675 41.8313C79.6125 41.7713 80.0625 41.7938 80.0625 41.8688C80.0625 42.0263 78.7912 43.02 78.2662 43.2938C78.0112 43.4288 77.955 43.5675 77.9925 43.86L78.3037 45.9113C78.48 47.085 78.615 47.6288 78.7912 47.7863C79.26 48.1763 81.6825 49.4288 83.205 50.0513C85.1962 50.8538 86.2912 51.1463 87.8137 51.2813C89.6887 51.4388 89.7262 51.4388 92.4225 51.2813V51.2888ZM76.2712 49.14C76.3087 49.08 76.1737 47.9475 75.9187 46.6388C75.6075 44.8613 75.4312 44.2163 75.2362 44.04C75.1012 43.9238 74.3775 43.4138 73.6537 42.8888C72.7028 42.205 71.8018 41.4543 70.9575 40.6425L69.6112 39.315L68.8875 39.6863L68.1262 40.095C68.1903 40.4001 68.295 40.6952 68.4375 40.9725C68.6512 41.4413 69.0825 42.5925 69.3937 43.53C70.215 45.9713 70.86 47.145 72.48 49.2713L73.0837 50.0738L74.235 50.25C74.88 50.3475 75.525 50.4863 75.7012 50.5425C75.975 50.6588 76.0125 50.6025 76.0912 49.9763C76.1287 49.7025 76.1887 49.41 76.2675 49.1363L76.2712 49.14ZM101.017 24.8438C102.015 24.7463 102.191 24.6075 101.76 24.1613C101.486 23.8875 100.86 23.8688 100.354 24.1013C100.02 24.2588 99.945 24.2175 99.4162 23.6513C98.8687 23.0475 98.8312 23.025 98.145 23.1038C97.5187 23.1825 97.4212 23.1638 97.3425 22.9088C97.0986 22.4899 96.7955 22.1084 96.4425 21.7763C95.9989 21.2722 95.4443 20.8781 94.8225 20.625C93.6112 20.1563 92.9287 20.2163 91.7737 20.8613C88.4325 22.6763 88.5712 22.6575 85.3462 21.8363C82.3387 21.075 80.0925 20.295 79.3687 19.8038C78.765 19.395 77.475 18.945 76.3987 18.8063C75.5962 18.69 75.09 18.8663 74.3287 19.4888L73.92 19.8225L74.2912 20.4675C74.7975 21.3675 74.7412 21.4238 73.98 20.76C73.1587 20.0775 72.1837 19.6088 71.5575 19.5863C71.1075 19.5863 69.78 20.1713 69.6225 20.4263C69.5625 20.505 69.975 20.6025 70.5225 20.64C71.0887 20.7 71.8687 20.895 72.3975 21.1088C73.7662 21.6938 74.4675 21.8888 75.7162 22.0088C77.085 22.1438 79.5637 21.99 79.8562 21.7538C80.0137 21.6188 80.4412 21.5963 81.3412 21.675C82.5337 21.7538 83.0212 21.87 85.8525 22.6313C87.495 23.0813 88.6462 23.04 90.6 22.515C91.5 22.26 92.6325 22.0088 93.1012 21.9488C93.9037 21.87 94.0575 21.9113 95.31 22.4775C97.3012 23.3775 98.3587 23.9438 98.9437 24.4688C99.5287 24.975 99.6075 24.975 101.014 24.8588L101.017 24.8438ZM89.8837 21.4275L91.0762 20.8013L91.0387 19.59C91.02 18.75 90.9787 17.9288 90.9412 17.1113L90.8437 15.8625L89.6512 16.7813C88.9462 17.3288 88.2637 17.7375 87.9712 17.7975C87.1125 17.955 82.875 17.7975 82.4812 17.5838C81.9567 17.1963 81.4661 16.7647 81.015 16.2938L79.92 15.18L79.9012 15.8438C79.9012 16.1963 79.8637 16.8 79.785 17.1713C79.6875 17.8763 79.6875 17.895 80.4487 18.8513C80.8575 19.38 81.1912 19.8488 81.1912 19.905C81.1912 20.2763 86.835 22.035 88.1062 22.0538C88.515 22.0538 89.025 21.8775 89.8837 21.4275ZM87.6187 16.9913C89.025 16.7175 89.7075 15.7013 90.2362 13.125C90.7837 10.35 91.0575 5.99625 90.8025 4.14C90.5662 2.46 88.6912 1.7175 85.1175 1.83375C82.89 1.9125 81.9712 2.12625 81.21 2.77125C80.7412 3.16125 80.7412 3.2025 80.5275 5.055C80.1375 8.61 80.7225 13.6688 81.7387 15.5625C82.2262 16.4813 82.6575 16.8113 83.5537 16.9688C84.57 17.145 86.7375 17.145 87.615 16.9875L87.6187 16.9913Z" fill="white"/>
</svg>
