<svg width="97" height="59" viewBox="0 0 97 59" fill="none" xmlns="http://www.w3.org/2000/svg">
<g clip-path="url(#clip0_14_165)">
<path d="M12.5581 0V3.83066C11.5028 3.83066 10.6796 3.98157 10.0882 4.28338C9.49679 4.57357 9.24169 5.15977 9.32287 6.04199L9.86206 11.1785C10.0012 12.4786 9.85626 13.5292 9.42722 14.3301C9.00978 15.131 8.36623 15.7464 7.49655 16.1758C6.63848 16.5938 5.62386 16.8897 4.45271 17.0638C5.69343 17.2495 6.74284 17.5514 7.60092 17.9693C8.45899 18.3871 9.08516 18.9907 9.47941 19.7801C9.87366 20.5695 10.0012 21.6258 9.86206 22.9492L9.32287 28.0857C9.24169 28.9679 9.49679 29.5541 10.0882 29.8443C10.6796 30.146 11.5028 30.297 12.5581 30.297V34.1277C9.35765 34.1277 7.1081 33.6401 5.80939 32.6651C4.52229 31.7016 4.00048 30.0475 4.24398 27.7026L4.76579 22.7227C4.85856 21.8406 4.70782 21.1499 4.31357 20.6507C3.93091 20.1516 3.36272 19.8033 2.60901 19.6059C1.85529 19.3971 0.985626 19.2926 0 19.2926V14.8351C0.97403 14.8351 1.8379 14.7364 2.59162 14.5391C3.34533 14.3301 3.91932 13.9761 4.31357 13.477C4.70782 12.9778 4.85856 12.2871 4.76579 11.4049L4.24398 6.45987C3.98889 4.06861 4.51068 2.39706 5.80939 1.4452C7.1081 0.481734 9.35765 0 12.5581 0Z" fill="#A7A7A7"/>
<path d="M27.633 4.50977C30.5087 4.50977 32.6771 5.62414 34.1381 7.85288C35.6108 10.07 36.3471 13.1636 36.3471 17.1335C36.3471 21.115 35.6108 24.2318 34.1381 26.4838C32.6771 28.7242 30.5087 29.8443 27.633 29.8443C24.7342 29.8443 22.5541 28.7242 21.0931 26.4838C19.6436 24.2318 18.9189 21.115 18.9189 17.1335C18.9189 13.1636 19.6436 10.07 21.0931 7.85288C22.5541 5.62414 24.7342 4.50977 27.633 4.50977ZM27.633 8.49713C26.4039 8.49713 25.5052 9.15879 24.937 10.4821C24.3689 11.7938 24.0847 14.0109 24.0847 17.1335C24.0847 18.1551 24.1022 19.0663 24.1369 19.8672C24.1718 20.6566 24.224 21.3589 24.2935 21.9741L30.1724 9.66374C29.8942 9.22264 29.5463 8.92083 29.1289 8.75831C28.7231 8.5842 28.2244 8.49713 27.633 8.49713ZM31.1465 17.1335C31.1465 15.7986 31.1175 14.6726 31.0595 13.7555L25.511 25.2302C25.7662 25.4739 26.0676 25.6422 26.4154 25.7351C26.775 25.8279 27.1808 25.8744 27.633 25.8744C28.4564 25.8744 29.1231 25.5958 29.6333 25.0387C30.1551 24.4815 30.5377 23.5644 30.7812 22.2875C31.0248 20.999 31.1465 19.281 31.1465 17.1335Z" fill="#A7A7A7"/>
<path d="M48.5 4.50977C51.3758 4.50977 53.5442 5.62414 55.0052 7.85288C56.4779 10.07 57.2141 13.1636 57.2141 17.1335C57.2141 21.115 56.4779 24.2318 55.0052 26.4838C53.5442 28.7242 51.3758 29.8443 48.5 29.8443C45.6011 29.8443 43.4212 28.7242 41.9602 26.4838C40.5107 24.2318 39.786 21.115 39.786 17.1335C39.786 13.1636 40.5107 10.07 41.9602 7.85288C43.4212 5.62414 45.6011 4.50977 48.5 4.50977ZM48.5 8.49713C47.271 8.49713 46.3723 9.15879 45.8041 10.4821C45.2359 11.7938 44.9518 14.0109 44.9518 17.1335C44.9518 18.1551 44.9692 19.0663 45.004 19.8672C45.0387 20.6566 45.0909 21.3589 45.1605 21.9741L51.0395 9.66374C50.7611 9.22264 50.4133 8.92083 49.9959 8.75831C49.59 8.5842 49.0914 8.49713 48.5 8.49713ZM52.0135 17.1335C52.0135 15.7986 51.9846 14.6726 51.9266 13.7555L46.3781 25.2302C46.6331 25.4739 46.9347 25.6422 47.2825 25.7351C47.642 25.8279 48.0478 25.8744 48.5 25.8744C49.3233 25.8744 49.99 25.5958 50.5003 25.0387C51.022 24.4815 51.4048 23.5644 51.6482 22.2875C51.8917 20.999 52.0135 19.281 52.0135 17.1335Z" fill="#A7A7A7"/>
<path d="M68.1146 29.8095L62.8966 28.1902L71.889 9.26321H61.2964V5.11914H77.4549V8.84532L68.1146 29.8095Z" fill="#A7A7A7"/>
<path d="M84.4419 0C87.6423 0 89.8861 0.481734 91.1732 1.4452C92.4719 2.40867 92.9995 4.06862 92.756 6.42505L92.2342 11.4049C92.1414 12.2871 92.2921 12.9778 92.6864 13.477C93.0807 13.9761 93.6488 14.3301 94.3909 14.5391C95.1447 14.7364 96.0144 14.8351 97 14.8351V19.2926C96.0259 19.2926 95.1621 19.3971 94.4083 19.6059C93.6547 19.8033 93.0807 20.1516 92.6864 20.6507C92.2921 21.1499 92.1414 21.8406 92.2342 22.7227L92.756 27.6678C93.0227 30.0475 92.5009 31.719 91.1905 32.6824C89.8918 33.646 87.6423 34.1277 84.4419 34.1277V30.297C85.5088 30.297 86.3378 30.146 86.9291 29.8443C87.5206 29.5541 87.7699 28.9679 87.6772 28.0857L87.1379 22.9492C86.9988 21.6374 87.1379 20.5868 87.5553 19.7976C87.9844 18.9965 88.6338 18.3871 89.5035 17.9693C90.373 17.5397 91.3935 17.238 92.5646 17.0638C91.3239 16.8781 90.2688 16.5763 89.3991 16.1584C88.5409 15.7405 87.9149 15.1369 87.5206 14.3476C87.1263 13.5466 86.9988 12.4903 87.1379 11.1785L87.6772 6.04199C87.7699 5.15977 87.5147 4.57357 86.9118 4.28338C86.3204 3.98157 85.4971 3.83066 84.4419 3.83066V0Z" fill="#A7A7A7"/>
<path d="M12.2745 42.1621C13.2416 42.1621 14.0207 42.4024 14.6121 42.883C15.2035 43.3635 15.6349 44.0426 15.9062 44.9202C16.1845 45.7977 16.3237 46.839 16.3237 48.0439C16.3237 49.1862 16.1567 50.2065 15.8227 51.1049C15.4888 51.9964 15.0052 52.6999 14.3722 53.2153C13.739 53.7238 12.9702 53.978 12.0657 53.978C10.9873 53.978 10.1107 53.5914 9.43585 52.8182V57.9061L6.13806 58.2509V42.5278H9.06016L9.20627 43.771C9.6585 43.1929 10.1525 42.782 10.6882 42.5382C11.2239 42.2875 11.7527 42.1621 12.2745 42.1621ZM11.2517 44.5964C10.8691 44.5964 10.5316 44.7113 10.2394 44.9411C9.94723 45.1709 9.67936 45.4843 9.43585 45.8813V50.5617C9.66545 50.903 9.90548 51.1537 10.1559 51.3139C10.4134 51.474 10.716 51.5542 11.0639 51.5542C11.6483 51.5542 12.104 51.2895 12.4311 50.7601C12.758 50.2238 12.9215 49.3325 12.9215 48.0857C12.9215 47.1663 12.8554 46.456 12.7232 45.9545C12.591 45.4461 12.3997 45.0943 12.1492 44.8993C11.8988 44.6973 11.5996 44.5964 11.2517 44.5964Z" fill="#A7A7A7"/>
<path d="M27.9882 50.4259C27.9882 50.8437 28.0439 51.1467 28.1552 51.3348C28.2735 51.5228 28.4613 51.6657 28.7187 51.7631L28.0404 53.9362C27.3863 53.8735 26.8333 53.7307 26.381 53.5078C25.9358 53.278 25.5845 52.9332 25.327 52.4736C24.9026 52.982 24.3599 53.3615 23.699 53.6123C23.038 53.856 22.3632 53.978 21.6744 53.978C20.5333 53.978 19.6219 53.6541 18.9401 53.0063C18.2653 52.3517 17.9279 51.5124 17.9279 50.4886C17.9279 49.2837 18.3975 48.3538 19.3367 47.6991C20.2829 47.0445 21.6118 46.7172 23.3233 46.7172H24.8156V46.2992C24.8156 45.164 24.0851 44.5964 22.624 44.5964C22.2693 44.5964 21.8135 44.6486 21.2569 44.7531C20.7003 44.8505 20.1438 44.9932 19.5872 45.1813L18.8253 42.9875C19.542 42.7159 20.2864 42.5103 21.0586 42.3711C21.8378 42.2318 22.5336 42.1621 23.1458 42.1621C24.7947 42.1621 26.0123 42.4999 26.7984 43.1754C27.5916 43.8441 27.9882 44.8122 27.9882 46.0798V50.4259ZM22.8119 51.6169C23.1667 51.6169 23.539 51.5124 23.9286 51.3034C24.3182 51.0876 24.6139 50.7846 24.8156 50.3946V48.5977H24.0017C23.0832 48.5977 22.4084 48.7404 21.9771 49.0259C21.5457 49.3045 21.33 49.7155 21.33 50.2588C21.33 50.6836 21.4587 51.0179 21.7161 51.2616C21.9805 51.4985 22.3458 51.6169 22.8119 51.6169Z" fill="#A7A7A7"/>
<path d="M41.6354 42.5276L37.9411 53.6225H34.0589L30.3226 42.5276H33.8814L36.0417 51.0943L38.2958 42.5276H41.6354Z" fill="#A7A7A7"/>
<path d="M53.0285 50.4259C53.0285 50.8437 53.0841 51.1467 53.1955 51.3348C53.3137 51.5228 53.5016 51.6657 53.759 51.7631L53.0807 53.9362C52.4266 53.8735 51.8736 53.7307 51.4214 53.5078C50.976 53.278 50.6248 52.9332 50.3673 52.4736C49.9429 52.982 49.4002 53.3615 48.7393 53.6123C48.0783 53.856 47.4035 53.978 46.7147 53.978C45.5736 53.978 44.6622 53.6541 43.9804 53.0063C43.3055 52.3517 42.9681 51.5124 42.9681 50.4886C42.9681 49.2837 43.4378 48.3538 44.377 47.6991C45.3232 47.0445 46.6521 46.7172 48.3635 46.7172H49.8559V46.2992C49.8559 45.164 49.1254 44.5964 47.6644 44.5964C47.3096 44.5964 46.8538 44.6486 46.2972 44.7531C45.7406 44.8505 45.184 44.9932 44.6275 45.1813L43.8657 42.9875C44.5823 42.7159 45.3267 42.5103 46.0989 42.3711C46.8782 42.2318 47.5739 42.1621 48.1861 42.1621C49.835 42.1621 51.0525 42.4999 51.8387 43.1754C52.6319 43.8441 53.0285 44.8122 53.0285 46.0798V50.4259ZM47.8521 51.6169C48.207 51.6169 48.5793 51.5124 48.9689 51.3034C49.3585 51.0876 49.6541 50.7846 49.8559 50.3946V48.5977H49.0419C48.1235 48.5977 47.4487 48.7404 47.0173 49.0259C46.586 49.3045 46.3703 49.7155 46.3703 50.2588C46.3703 50.6836 46.4991 51.0179 46.7564 51.2616C47.0208 51.4985 47.3861 51.6169 47.8521 51.6169Z" fill="#A7A7A7"/>
<path d="M56.2189 53.6227V42.5278H59.0993L59.3289 43.8128C59.8229 43.2556 60.3446 42.8412 60.8943 42.5696C61.4439 42.2979 62.0701 42.1621 62.7728 42.1621C63.7189 42.1621 64.4634 42.4511 65.0061 43.0293C65.5487 43.6074 65.82 44.4222 65.82 45.4739V53.6227H62.5223V46.4246C62.5223 45.7421 62.4458 45.2685 62.2927 45.0037C62.1466 44.7322 61.8683 44.5964 61.4577 44.5964C61.1099 44.5964 60.776 44.7077 60.4559 44.9307C60.1428 45.1535 59.8297 45.4634 59.5168 45.8604V53.6227H56.2189Z" fill="#A7A7A7"/>
<path d="M76.9314 42.1621C77.7174 42.1621 78.2985 42.4199 78.6742 42.9353C79.0568 43.4436 79.2481 44.269 79.2481 45.4112V53.6227H76.42V45.7873C76.42 45.3973 76.3817 45.1222 76.3052 44.962C76.2356 44.8017 76.0894 44.7217 75.8668 44.7217C75.693 44.7217 75.512 44.774 75.3241 44.8784C75.1433 44.9759 74.9415 45.164 74.7189 45.4425V53.6227H72.4021V45.7873C72.4021 45.3973 72.3638 45.1222 72.2873 44.962C72.2177 44.8017 72.0716 44.7217 71.8489 44.7217C71.6751 44.7217 71.4941 44.774 71.3062 44.8784C71.1254 44.9759 70.9236 45.164 70.701 45.4425V53.6227H67.8311V42.5278H70.2522L70.4714 43.6038C70.8193 43.1302 71.1707 42.7715 71.5254 42.5278C71.8803 42.284 72.3012 42.1621 72.7882 42.1621C73.2056 42.1621 73.5604 42.27 73.8527 42.486C74.1519 42.695 74.3641 43.0257 74.4893 43.4784C74.8233 43.0884 75.192 42.7715 75.5955 42.5278C75.9991 42.284 76.4443 42.1621 76.9314 42.1621Z" fill="#A7A7A7"/>
<path d="M91.1004 40.7517L91.8728 43.1754C91.4832 43.3287 91.0274 43.4401 90.5057 43.5097C89.9838 43.5794 89.3751 43.6142 88.6794 43.6142C89.3751 43.9137 89.9038 44.2863 90.2656 44.7321C90.6344 45.1708 90.8187 45.7489 90.8187 46.4664C90.8187 47.1837 90.6274 47.8245 90.2448 48.3886C89.862 48.9458 89.3195 49.3846 88.6168 49.705C87.9141 50.0254 87.0826 50.1856 86.1225 50.1856C85.6633 50.1856 85.2354 50.1438 84.8389 50.0602C84.7205 50.1229 84.6302 50.2133 84.5676 50.3318C84.5049 50.4502 84.4736 50.5721 84.4736 50.6975C84.4736 50.8716 84.5431 51.0283 84.6824 51.1675C84.8285 51.3069 85.1659 51.3765 85.6946 51.3765H87.5105C88.3732 51.3765 89.1176 51.5158 89.7438 51.7944C90.3769 52.0729 90.8674 52.4526 91.2153 52.9331C91.5631 53.4137 91.7371 53.964 91.7371 54.5839C91.7371 55.7191 91.2397 56.6141 90.2448 57.2688C89.2498 57.9234 87.7714 58.2509 85.8094 58.2509C84.3901 58.2509 83.2908 58.1046 82.5117 57.812C81.7393 57.5265 81.2002 57.1156 80.8941 56.5792C80.5949 56.0499 80.4453 55.4196 80.4453 54.6882H83.3673C83.3673 55.0087 83.43 55.2699 83.5552 55.4718C83.6874 55.6808 83.9344 55.8341 84.2962 55.9315C84.6649 56.029 85.1972 56.0778 85.8929 56.0778C86.5956 56.0778 87.1313 56.022 87.5 55.9107C87.8688 55.7992 88.1192 55.646 88.2515 55.4509C88.3906 55.2629 88.4602 55.0505 88.4602 54.8136C88.4602 54.4863 88.3314 54.2217 88.0741 54.0197C87.8166 53.8177 87.4097 53.7167 86.853 53.7167H85.0893C83.8926 53.7167 83.0229 53.4973 82.4803 53.0585C81.9376 52.6128 81.6663 52.0938 81.6663 51.5019C81.6663 51.091 81.7741 50.701 81.9898 50.3318C82.2124 49.9627 82.5221 49.6527 82.9187 49.402C82.209 49.0258 81.701 48.5836 81.3949 48.0752C81.0888 47.5598 80.9358 46.9434 80.9358 46.226C80.9358 45.3902 81.148 44.6729 81.5724 44.0739C81.9968 43.4679 82.5811 43.0013 83.3256 42.674C84.077 42.3467 84.9329 42.1829 85.8929 42.1829C86.7208 42.1968 87.441 42.1412 88.0532 42.0158C88.6654 41.8834 89.2151 41.7059 89.7021 41.4829C90.189 41.2531 90.6552 41.0093 91.1004 40.7517ZM85.9764 44.3246C85.4546 44.3246 85.0406 44.4918 84.7345 44.8262C84.4283 45.1535 84.2753 45.6062 84.2753 46.1843C84.2753 46.7971 84.4319 47.2673 84.745 47.5946C85.058 47.9219 85.4686 48.0857 85.9764 48.0857C87.1034 48.0857 87.667 47.4379 87.667 46.1425C87.667 44.9306 87.1034 44.3246 85.9764 44.3246Z" fill="#A7A7A7"/>
</g>
<defs>
<clipPath id="clip0_14_165">
<rect width="97" height="59" fill="white"/>
</clipPath>
</defs>
</svg>
